<svg width="404" height="127" viewBox="0 0 404 127" fill="none" xmlns="http://www.w3.org/2000/svg">
<g clip-path="url(#clip0_101_2)">
<rect width="404" height="127" fill="white"/>
<mask id="mask0_101_2" style="mask-type:alpha" maskUnits="userSpaceOnUse" x="4" y="31" width="393" height="71">
<path d="M52.3125 92.0469C51.25 93.2969 50.125 94.4375 48.9375 95.4688C47.75 96.4688 46.5156 97.3438 45.2344 98.0938C43.0469 99.4062 40.6875 100.375 38.1562 101C35.625 101.656 32.9688 101.969 30.1875 101.938C27.375 101.906 24.7812 101.484 22.4062 100.672C20.0625 99.8281 17.9531 98.6719 16.0781 97.2031C14.2031 95.7656 12.5625 94.0625 11.1562 92.0938C9.75 90.125 8.57812 87.9844 7.64062 85.6719C6.67188 83.3906 5.9375 81 5.4375 78.5C4.96875 75.9688 4.71875 73.4219 4.6875 70.8594V62.9375C4.71875 60.4062 4.9375 57.8906 5.34375 55.3906C5.78125 52.8594 6.4375 50.4375 7.3125 48.125C8.1875 45.8125 9.28125 43.6719 10.5938 41.7031C11.9062 39.7031 13.4844 37.9688 15.3281 36.5C17.1406 35.0625 19.2031 33.9219 21.5156 33.0781C23.8281 32.2344 26.4219 31.8125 29.2969 31.8125C32.4844 31.8125 35.4219 32.3125 38.1094 33.3125C40.7969 34.2812 43.1406 35.6719 45.1406 37.4844C47.1406 39.3281 48.75 41.5469 49.9688 44.1406C51.1875 46.7031 51.9375 49.5781 52.2188 52.7656H43.6406C43.2969 50.7969 42.7656 48.9844 42.0469 47.3281C41.3281 45.6406 40.3906 44.2031 39.2344 43.0156C38.0469 41.8281 36.6406 40.9062 35.0156 40.25C33.3906 39.5625 31.5 39.2188 29.3438 39.2188C27.2812 39.2188 25.4531 39.5781 23.8594 40.2969C22.2656 40.9844 20.875 41.9219 19.6875 43.1094C18.5 44.2969 17.5156 45.6875 16.7344 47.2812C15.9531 48.8438 15.3125 50.5 14.8125 52.25C14.3125 54 13.9531 55.7812 13.7344 57.5938C13.5156 59.4062 13.4062 61.1562 13.4062 62.8438V70.8594C13.4375 72.5781 13.5781 74.3594 13.8281 76.2031C14.1094 78.0156 14.5312 79.7969 15.0938 81.5469C15.6562 83.2969 16.375 84.9531 17.25 86.5156C18.125 88.0781 19.1875 89.4531 20.4375 90.6406C21.6562 91.8281 23.0781 92.7812 24.7031 93.5C26.3281 94.1875 28.1719 94.5469 30.2344 94.5781C31.4219 94.6094 32.6562 94.5625 33.9375 94.4375C35.25 94.3125 36.5156 94.0625 37.7344 93.6875C38.9531 93.3125 40.0938 92.8125 41.1562 92.1875C42.2188 91.5312 43.1094 90.6875 43.8281 89.6562L43.9219 74.3281H30.0469V67.0156H52.1719L52.3125 92.0469ZM88.2188 101.938C84.6562 101.938 81.375 101.328 78.375 100.109C75.4062 98.8906 72.8594 97.1875 70.7344 95C68.6094 92.8125 66.9531 90.2188 65.7656 87.2188C64.5781 84.2188 63.9844 80.9531 63.9844 77.4219V75.4531C63.9844 71.3594 64.6406 67.7031 65.9531 64.4844C67.2656 61.2344 69.0156 58.4844 71.2031 56.2344C73.3594 54.0156 75.8125 52.3125 78.5625 51.125C81.3438 49.9375 84.1875 49.3438 87.0938 49.3438C90.75 49.3438 93.9375 49.9844 96.6562 51.2656C99.4062 52.5156 101.688 54.25 103.5 56.4688C105.312 58.7188 106.656 61.3594 107.531 64.3906C108.438 67.4219 108.891 70.7031 108.891 74.2344V78.125H72.6562V78.4531C72.875 80.9219 73.3594 83.0938 74.1094 84.9688C74.8906 86.8438 75.9531 88.5 77.2969 89.9375C78.6719 91.4688 80.3281 92.6719 82.2656 93.5469C84.2031 94.4219 86.3438 94.8594 88.6875 94.8594C91.7812 94.8594 94.5312 94.2344 96.9375 92.9844C99.3438 91.7344 101.344 90.0781 102.938 88.0156L108.234 92.1406C106.547 94.7031 104.016 96.9844 100.641 98.9844C97.2969 100.953 93.1562 101.938 88.2188 101.938ZM87.0938 56.4688C85.3438 56.4688 83.6875 56.7969 82.125 57.4531C80.5625 58.0781 79.1562 59 77.9062 60.2188C76.6562 61.4688 75.5938 63 74.7188 64.8125C73.875 66.5938 73.2812 68.6562 72.9375 71H100.219V70.5781C100.219 69.0156 99.9219 67.3438 99.3281 65.5625C98.7344 63.75 97.9062 62.1875 96.8438 60.875C95.7812 59.5625 94.4375 58.5 92.8125 57.6875C91.2188 56.875 89.3125 56.4688 87.0938 56.4688ZM123.469 101V50.2812H131.25L131.859 57.7812C132.609 56.7188 133.422 55.75 134.297 54.875C135.203 53.9688 136.156 53.1875 137.156 52.5312C138.656 51.5312 140.281 50.7656 142.031 50.2344C143.812 49.6719 145.688 49.375 147.656 49.3438C150.312 49.3438 152.719 49.7188 154.875 50.4688C157.062 51.2188 158.922 52.3906 160.453 53.9844C161.984 55.5781 163.156 57.6094 163.969 60.0781C164.812 62.5156 165.234 65.4219 165.234 68.7969V101H156.562V68.9844C156.562 66.7344 156.312 64.8281 155.812 63.2656C155.312 61.7031 154.578 60.4375 153.609 59.4688C152.609 58.5 151.391 57.7969 149.953 57.3594C148.547 56.9219 146.922 56.7031 145.078 56.7031C143.484 56.7031 142 56.9375 140.625 57.4062C139.25 57.8438 137.984 58.4531 136.828 59.2344C135.891 59.9219 135.016 60.7188 134.203 61.625C133.422 62.5312 132.734 63.5312 132.141 64.625V101H123.469ZM203.531 101.938C199.969 101.938 196.688 101.328 193.688 100.109C190.719 98.8906 188.172 97.1875 186.047 95C183.922 92.8125 182.266 90.2188 181.078 87.2188C179.891 84.2188 179.297 80.9531 179.297 77.4219V75.4531C179.297 71.3594 179.953 67.7031 181.266 64.4844C182.578 61.2344 184.328 58.4844 186.516 56.2344C188.672 54.0156 191.125 52.3125 193.875 51.125C196.656 49.9375 199.5 49.3438 202.406 49.3438C206.062 49.3438 209.25 49.9844 211.969 51.2656C214.719 52.5156 217 54.25 218.812 56.4688C220.625 58.7188 221.969 61.3594 222.844 64.3906C223.75 67.4219 224.203 70.7031 224.203 74.2344V78.125H187.969V78.4531C188.188 80.9219 188.672 83.0938 189.422 84.9688C190.203 86.8438 191.266 88.5 192.609 89.9375C193.984 91.4688 195.641 92.6719 197.578 93.5469C199.516 94.4219 201.656 94.8594 204 94.8594C207.094 94.8594 209.844 94.2344 212.25 92.9844C214.656 91.7344 216.656 90.0781 218.25 88.0156L223.547 92.1406C221.859 94.7031 219.328 96.9844 215.953 98.9844C212.609 100.953 208.469 101.938 203.531 101.938ZM202.406 56.4688C200.656 56.4688 199 56.7969 197.438 57.4531C195.875 58.0781 194.469 59 193.219 60.2188C191.969 61.4688 190.906 63 190.031 64.8125C189.188 66.5938 188.594 68.6562 188.25 71H215.531V70.5781C215.531 69.0156 215.234 67.3438 214.641 65.5625C214.047 63.75 213.219 62.1875 212.156 60.875C211.094 59.5625 209.75 58.5 208.125 57.6875C206.531 56.875 204.625 56.4688 202.406 56.4688ZM272.484 87.5469C272.484 86.5156 272.281 85.5938 271.875 84.7812C271.469 83.9375 270.781 83.1719 269.812 82.4844C268.844 81.7969 267.562 81.1719 265.969 80.6094C264.375 80.0156 262.391 79.4844 260.016 79.0156C257.109 78.4219 254.453 77.7031 252.047 76.8594C249.672 76.0156 247.641 75 245.953 73.8125C244.234 72.6562 242.906 71.2969 241.969 69.7344C241.031 68.1406 240.562 66.2969 240.562 64.2031C240.562 62.1406 241.047 60.2188 242.016 58.4375C242.984 56.625 244.344 55.0469 246.094 53.7031C247.844 52.3594 249.922 51.2969 252.328 50.5156C254.766 49.7344 257.438 49.3438 260.344 49.3438C263.469 49.3438 266.281 49.75 268.781 50.5625C271.281 51.375 273.406 52.5 275.156 53.9375C276.906 55.375 278.25 57.0625 279.188 59C280.156 60.9062 280.641 62.9688 280.641 65.1875H271.969C271.969 64.0938 271.688 63.0312 271.125 62C270.562 60.9375 269.781 60 268.781 59.1875C267.781 58.375 266.562 57.7188 265.125 57.2188C263.719 56.7188 262.125 56.4688 260.344 56.4688C258.5 56.4688 256.875 56.6719 255.469 57.0781C254.094 57.4844 252.953 58.0312 252.047 58.7188C251.109 59.4062 250.406 60.2031 249.938 61.1094C249.469 62.0156 249.234 62.9531 249.234 63.9219C249.234 64.9219 249.422 65.8125 249.797 66.5938C250.172 67.375 250.828 68.0781 251.766 68.7031C252.672 69.3281 253.891 69.8906 255.422 70.3906C256.984 70.8906 258.953 71.375 261.328 71.8438C264.453 72.5 267.25 73.2656 269.719 74.1406C272.188 74.9844 274.266 76 275.953 77.1875C277.641 78.4062 278.922 79.8125 279.797 81.4062C280.703 83 281.156 84.8438 281.156 86.9375C281.156 89.1875 280.641 91.2344 279.609 93.0781C278.609 94.9219 277.203 96.5 275.391 97.8125C273.578 99.125 271.406 100.141 268.875 100.859C266.344 101.578 263.578 101.938 260.578 101.938C257.141 101.938 254.078 101.484 251.391 100.578C248.703 99.6406 246.438 98.4062 244.594 96.875C242.719 95.375 241.281 93.625 240.281 91.625C239.312 89.625 238.828 87.5469 238.828 85.3906H247.5C247.625 87.1719 248.094 88.6719 248.906 89.8906C249.75 91.1094 250.797 92.0938 252.047 92.8438C253.266 93.5938 254.625 94.125 256.125 94.4375C257.625 94.75 259.109 94.9062 260.578 94.9062C262.891 94.9062 264.906 94.6406 266.625 94.1094C268.344 93.5469 269.688 92.7812 270.656 91.8125C271.25 91.2188 271.703 90.5625 272.016 89.8438C272.328 89.125 272.484 88.3594 272.484 87.5469ZM297.797 50.2812H323.719V93.5H340.266V101H297.797V93.5H315.047V57.8281H297.797V50.2812ZM313.922 36.9688C313.922 36.2188 314.031 35.5156 314.25 34.8594C314.5 34.2031 314.875 33.6406 315.375 33.1719C315.781 32.7656 316.297 32.4531 316.922 32.2344C317.578 31.9844 318.312 31.8594 319.125 31.8594C319.938 31.8594 320.656 31.9844 321.281 32.2344C321.906 32.4531 322.422 32.7656 322.828 33.1719C323.328 33.6094 323.703 34.1562 323.953 34.8125C324.203 35.4688 324.328 36.1875 324.328 36.9688C324.328 38.375 323.891 39.5469 323.016 40.4844C322.141 41.4219 320.844 41.8906 319.125 41.8906C317.375 41.8906 316.062 41.4219 315.188 40.4844C314.344 39.5469 313.922 38.375 313.922 36.9688ZM387.797 87.5469C387.797 86.5156 387.594 85.5938 387.188 84.7812C386.781 83.9375 386.094 83.1719 385.125 82.4844C384.156 81.7969 382.875 81.1719 381.281 80.6094C379.688 80.0156 377.703 79.4844 375.328 79.0156C372.422 78.4219 369.766 77.7031 367.359 76.8594C364.984 76.0156 362.953 75 361.266 73.8125C359.547 72.6562 358.219 71.2969 357.281 69.7344C356.344 68.1406 355.875 66.2969 355.875 64.2031C355.875 62.1406 356.359 60.2188 357.328 58.4375C358.297 56.625 359.656 55.0469 361.406 53.7031C363.156 52.3594 365.234 51.2969 367.641 50.5156C370.078 49.7344 372.75 49.3438 375.656 49.3438C378.781 49.3438 381.594 49.75 384.094 50.5625C386.594 51.375 388.719 52.5 390.469 53.9375C392.219 55.375 393.562 57.0625 394.5 59C395.469 60.9062 395.953 62.9688 395.953 65.1875H387.281C387.281 64.0938 387 63.0312 386.438 62C385.875 60.9375 385.094 60 384.094 59.1875C383.094 58.375 381.875 57.7188 380.438 57.2188C379.031 56.7188 377.438 56.4688 375.656 56.4688C373.812 56.4688 372.188 56.6719 370.781 57.0781C369.406 57.4844 368.266 58.0312 367.359 58.7188C366.422 59.4062 365.719 60.2031 365.25 61.1094C364.781 62.0156 364.547 62.9531 364.547 63.9219C364.547 64.9219 364.734 65.8125 365.109 66.5938C365.484 67.375 366.141 68.0781 367.078 68.7031C367.984 69.3281 369.203 69.8906 370.734 70.3906C372.297 70.8906 374.266 71.375 376.641 71.8438C379.766 72.5 382.562 73.2656 385.031 74.1406C387.5 74.9844 389.578 76 391.266 77.1875C392.953 78.4062 394.234 79.8125 395.109 81.4062C396.016 83 396.469 84.8438 396.469 86.9375C396.469 89.1875 395.953 91.2344 394.922 93.0781C393.922 94.9219 392.516 96.5 390.703 97.8125C388.891 99.125 386.719 100.141 384.188 100.859C381.656 101.578 378.891 101.938 375.891 101.938C372.453 101.938 369.391 101.484 366.703 100.578C364.016 99.6406 361.75 98.4062 359.906 96.875C358.031 95.375 356.594 93.625 355.594 91.625C354.625 89.625 354.141 87.5469 354.141 85.3906H362.812C362.938 87.1719 363.406 88.6719 364.219 89.8906C365.062 91.1094 366.109 92.0938 367.359 92.8438C368.578 93.5938 369.938 94.125 371.438 94.4375C372.938 94.75 374.422 94.9062 375.891 94.9062C378.203 94.9062 380.219 94.6406 381.938 94.1094C383.656 93.5469 385 92.7812 385.969 91.8125C386.562 91.2188 387.016 90.5625 387.328 89.8438C387.641 89.125 387.797 88.3594 387.797 87.5469Z" fill="black"/>
</mask>
<g mask="url(#mask0_101_2)">
<rect width="404" height="127" fill="url(#paint0_linear_101_2)"/>
</g>
</g>
<defs>
<linearGradient id="paint0_linear_101_2" x1="0" y1="63.5" x2="404" y2="63.5" gradientUnits="userSpaceOnUse">
<stop stop-color="#C21500"/>
<stop offset="1" stop-color="#FFC500"/>
</linearGradient>
<clipPath id="clip0_101_2">
<rect width="404" height="127" fill="white"/>
</clipPath>
</defs>
</svg>
